<svg width="26" height="19" viewBox="0 0 26 19" fill="none" xmlns="http://www.w3.org/2000/svg">
<g id="heart">
<path id="Vector" d="M25.4262 10.4525H22.4788C22.0586 10.959 21.5772 11.4478 21.0382 11.9151H25.4262V10.4525Z" fill="#16571E"/>
<path id="Vector_2" d="M0 8.74982V10.3268H1.84011C1.59658 9.81743 1.3923 9.29025 1.22904 8.74982H0Z" fill="#16571E"/>
<path id="Vector_3" d="M15.176 9.72457L12.6268 14.8231L10.2614 6.93829L8.56714 10.3268H3.61206C4.10486 11.3577 4.77013 12.3674 5.6143 13.3663C7.5914 15.7052 10.2589 17.2964 12.3656 18.7043L12.8091 19L13.2527 18.7043C15.3608 17.2964 18.0284 15.7052 20.004 13.3663C20.4004 12.9005 20.7696 12.4121 21.1098 11.9037H16.2656L15.176 9.72457Z" fill="#16571E"/>
<path id="Vector_4" d="M10.6291 2.67654L12.9945 10.5613L15.1761 6.19807L17.2404 10.3267H22.0092C22.7189 8.86302 23.0789 7.25448 23.0609 5.6279C23.0298 2.56714 20.5742 0.0765381 17.5869 0.0765381C15.216 0.0765381 13.6396 1.45637 12.8107 2.45231C11.9818 1.45637 10.4053 0.0765381 8.03448 0.0765381C5.04714 0.0765381 2.59153 2.56714 2.56048 5.6279C2.54798 6.68486 2.69653 7.73755 3.00104 8.74977H7.59244L10.6291 2.67654Z" fill="#16571E"/>
</g>
</svg>
